<?xml version="1.0"?>
<svg width="640" height="480" xmlns="http://www.w3.org/2000/svg">
 <!-- Created with SVG-edit - http://svg-edit.googlecode.com/ -->
 <g>
  <title>Layer 1</title>
  <g id="svg_5">
   <rect stroke="#000000" transform="matrix(0.301238 0.271793 -0.240227 0.340819 301.619 84.0793)" id="svg_2" height="136" width="45" y="-116.554005" x="581.979267" stroke-width="5" fill="#000000"/>
   <rect stroke="#000000" id="svg_1" height="59.28555" width="17.33834" y="251.440753" x="470.13817" stroke-width="5" fill="#000000"/>
   <rect stroke="#000000" id="svg_4" transform="matrix(0.301237 -0.271793 0.240228 0.340819 208.953 331.683)" height="136" width="45" y="163.39531" x="635.067951" stroke-width="5" fill="#000000"/>
  </g>
  <g id="svg_8">
   <rect id="svg_9" stroke="#000000" transform="matrix(0.301238 0.271793 -0.240227 0.340819 301.619 84.0793)" height="136" width="45" y="448.965185" x="-97.373163" stroke-width="5" fill="#000000"/>
   <rect id="svg_10" stroke="#000000" height="59.28555" width="17.33834" y="259.537203" x="129.63842" stroke-width="5" fill="#000000"/>
   <rect id="svg_11" stroke="#000000" transform="matrix(0.301237 -0.271793 0.240228 0.340819 208.953 331.683)" height="136" width="45" y="-373.08191" x="-67.444989" stroke-width="5" fill="#000000"/>
  </g>
  <g id="svg_12">
   <rect id="svg_13" stroke="#000000" transform="matrix(0.301238 0.271793 -0.240227 0.340819 301.619 84.0793)" height="136" width="45" y="291.702835" x="195.489407" stroke-width="5" fill="#000000"/>
   <rect id="svg_14" stroke="#000000" height="59.28555" width="17.33834" y="285.537203" x="255.63842" stroke-width="5" fill="#000000"/>
   <rect id="svg_15" stroke="#000000" transform="matrix(0.301237 -0.271793 0.240228 0.340819 208.953 331.683)" height="136" width="45" y="-122.5569" x="151.043681" stroke-width="5" fill="#000000"/>
  </g>
  <text id="svg_55" xml:space="preserve" text-anchor="middle" font-family="Sans-serif" font-size="24" y="206.5" x="387" stroke-width="0" stroke="#000000" fill="#000000">A&#946;</text>
  <ellipse stroke="#000000" ry="26" rx="56.5" cy="198.726303" cx="386.5" stroke-linecap="null" stroke-linejoin="null" stroke-dasharray="null" stroke-width="5" fill="#f73636" stroke-opacity="0" id="svg_3"/>
  <ellipse stroke="#000000" ry="26" rx="56.5" cy="213.726303" cx="264.5" stroke-linecap="null" stroke-linejoin="null" stroke-dasharray="null" stroke-width="5" fill="#2e90f2" stroke-opacity="0" id="svg_6"/>
  <g id="svg_16">
   <rect id="svg_17" stroke="#000000" transform="matrix(0.301238 0.271793 -0.240227 0.340819 301.619 84.0793)" height="136" width="45" y="60.029865" x="412.413887" stroke-width="5" fill="#000000"/>
   <rect id="svg_18" stroke="#000000" height="59.28555" width="17.33834" y="265.537203" x="376.63842" stroke-width="5" fill="#000000"/>
   <rect id="svg_19" stroke="#000000" transform="matrix(0.301237 -0.271793 0.240228 0.340819 208.953 331.683)" height="136" width="45" y="37.37569" x="425.179021" stroke-width="5" fill="#000000"/>
  </g>
  <ellipse stroke="#000000" ry="26" rx="56.5" cy="188.726303" cx="482.5" stroke-linecap="null" stroke-linejoin="null" stroke-dasharray="null" stroke-width="5" fill="#579618" stroke-opacity="0" id="svg_21"/>
  <ellipse stroke="#000000" ry="26" rx="56.5" cy="189.726303" cx="138.5" stroke-linecap="null" stroke-linejoin="null" stroke-dasharray="null" stroke-width="5" fill="#f73636" stroke-opacity="0" id="red"/>
  <path stroke="#000000" id="svg_7" d="m34.5,409.725281l571,0a428.25,556.656006 0 0 0 -571,0" stroke-width="5" fill="none" transform="rotate(180 320 338.851)"/>
  <g id="svg_39">
   <line id="svg_38" y2="103.726303" x2="86.5" y1="84.726303" x1="103.5" stroke-linecap="null" stroke-linejoin="null" stroke-dasharray="null" stroke-width="9" stroke="#f73636" fill="none"/>
   <circle fill="#f73636" stroke="#f73636" stroke-width="5" stroke-dasharray="null" stroke-linejoin="null" stroke-linecap="null" cx="121.5" cy="66.726303" r="26.400757" id="svg_22"/>
  </g>
  <g id="svg_30" transform="rotate(135.507 111.5 130.726)">
   <rect id="svg_31" stroke="#000000" transform="matrix(0.301238 0.271793 -0.240227 0.340819 301.619 84.0793)" height="136" width="45" y="252.325825" x="-343.816473" stroke-width="5" fill="#000000"/>
   <rect id="svg_32" stroke="#000000" height="59.28555" width="17.33834" y="125.537213" x="102.63841" stroke-width="5" fill="#000000"/>
   <rect id="svg_33" stroke="#000000" transform="matrix(0.301237 -0.271793 0.240228 0.340819 208.953 331.683)" height="136" width="45" y="-657.1036" x="69.423881" stroke-width="5" fill="#000000"/>
  </g>
  <g id="svg_20" transform="rotate(130.4 279.5 153.726)">
   <rect id="svg_23" stroke="#000000" transform="matrix(0.301238 0.271793 -0.240227 0.340819 301.619 84.0793)" height="136" width="45" y="21.718365" x="29.980527" stroke-width="5" fill="#000000"/>
   <rect id="svg_24" stroke="#000000" height="59.28555" width="17.33834" y="148.537213" x="270.63841" stroke-width="5" fill="#000000"/>
   <rect id="svg_25" stroke="#000000" transform="matrix(0.301237 -0.271793 0.240228 0.340819 208.953 331.683)" height="136" width="45" y="-343.99452" x="377.428611" stroke-width="5" fill="#000000"/>
  </g>
  <g id="svg_26" transform="rotate(-116.87 536.5 120.726)">
   <rect id="svg_27" stroke="#000000" transform="matrix(0.301238 0.271793 -0.240227 0.340819 301.619 84.0793)" height="136" width="45" y="-453.346025" x="504.278917" stroke-width="5" fill="#000000"/>
   <rect id="svg_28" stroke="#000000" height="59.28555" width="17.33834" y="115.537213" x="527.63841" stroke-width="5" fill="#000000"/>
   <rect id="svg_29" stroke="#000000" transform="matrix(0.301237 -0.271793 0.240228 0.340819 208.953 331.683)" height="136" width="45" y="12.69828" x="946.124981" stroke-width="5" fill="#000000"/>
  </g>
  <g id="svg_34" transform="rotate(134.326 383.5 122.726)">
   <rect id="svg_35" stroke="#000000" transform="matrix(0.301238 0.271793 -0.240227 0.340819 301.619 84.0793)" height="136" width="45" y="-202.173785" x="196.676157" stroke-width="5" fill="#000000"/>
   <rect id="svg_36" stroke="#000000" height="59.28555" width="17.33834" y="117.537213" x="374.63841" stroke-width="5" fill="#000000"/>
   <rect id="svg_37" stroke="#000000" transform="matrix(0.301237 -0.271793 0.240228 0.340819 208.953 331.683)" height="136" width="45" y="-231.30001" x="632.801021" stroke-width="5" fill="#000000"/>
  </g>
  <g id="svg_40">
   <line y2="115.426681" x2="252.799622" y1="96.426681" x1="269.799622" stroke-linecap="null" stroke-linejoin="null" stroke-dasharray="null" stroke-width="9" stroke="#2e90f2" fill="none" id="svg_41"/>
   <circle fill="#2e90f2" stroke="#000000" stroke-width="5" stroke-dasharray="null" stroke-linejoin="null" stroke-linecap="null" cx="287.799622" cy="78.426681" r="26.400757" stroke-opacity="0" id="svg_42"/>
  </g>
  <g id="svg_43">
   <line y2="86.426681" x2="358.799622" y1="67.426681" x1="375.799622" stroke-linecap="null" stroke-linejoin="null" stroke-dasharray="null" stroke-width="9" stroke="#f73636" fill="none" id="svg_44"/>
   <circle fill="#f73636" stroke="#f73636" stroke-width="5" stroke-dasharray="null" stroke-linejoin="null" stroke-linecap="null" cx="393.799622" cy="49.426681" r="26.400757" id="svg_45"/>
  </g>
  <g id="svg_46">
   <line y2="102.257567" x2="538.954048" y1="83.257567" x1="555.954048" stroke-linecap="null" stroke-linejoin="null" stroke-dasharray="null" stroke-width="9" stroke="#579618" fill="none" id="svg_47" transform="rotate(-67.3801 547.454 92.7573)"/>
   <circle fill="#579618" stroke="#000000" stroke-width="5" stroke-dasharray="null" stroke-linejoin="null" stroke-linecap="null" cx="532.261742" cy="57.719106" r="26.400757" stroke-opacity="0" id="svg_48" transform="rotate(-67.3801 532.262 57.7191)"/>
  </g>
  <text xml:space="preserve" text-anchor="middle" font-family="Sans-serif" font-size="24" id="svg_54" y="413" x="137" stroke-width="0" stroke="#000000" fill="#000000">= antibody</text>
  <g id="svg_50">
   <rect stroke="#000000" id="svg_51" transform="matrix(0.163926 0.138651 -0.130725 0.173863 182.372 213.318)" height="136" width="45" y="865.419822" x="29.721342" stroke-width="5" fill="#000000"/>
   <rect stroke="#000000" id="svg_52" height="30.243595" width="9.435052" y="392.852865" x="55.177768" stroke-width="5" fill="#000000"/>
   <rect stroke="#000000" id="svg_53" transform="matrix(0.163925 -0.138651 0.130726 0.173863 131.946 339.629)" height="136" width="45" y="-156.502181" x="-445.175715" stroke-width="5" fill="#000000"/>
  </g>
  <text id="svg_56" xml:space="preserve" text-anchor="middle" font-family="Sans-serif" font-size="24" y="224" x="262" stroke-width="0" stroke="#000000" fill="#000000">tau</text>
  <text id="svg_57" xml:space="preserve" text-anchor="middle" font-family="Sans-serif" font-size="24" y="197" x="149" stroke-width="0" stroke="#000000" fill="#000000">A&#946;</text>
  <text id="svg_58" xml:space="preserve" text-anchor="middle" font-family="Sans-serif" font-size="24" y="209" x="387" stroke-width="0" stroke="#000000" fill="#000000">A&#946;</text>
  <text style="cursor: move;" id="svg_59" xml:space="preserve" text-anchor="middle" font-family="Sans-serif" font-size="24" y="197" x="481" stroke-width="0" stroke="#000000" fill="#000000">P-tau</text>
 </g>
</svg>