<?xml version="1.0"?>
<svg width="640" height="480" xmlns="http://www.w3.org/2000/svg">
 <!-- Created with SVG-edit - http://svg-edit.googlecode.com/ -->
 <g>
  <title>Layer 1</title>
  <g id="svg_5">
   <rect fill="#000000" stroke-width="5" x="581.979267" y="-116.554005" width="45" height="136" id="svg_2" transform="matrix(0.301238 0.271793 -0.240227 0.340819 301.619 84.0793)" stroke="#000000"/>
   <rect fill="#000000" stroke-width="5" x="470.13817" y="251.440753" width="17.33834" height="59.28555" id="svg_1" stroke="#000000"/>
   <rect fill="#000000" stroke-width="5" x="635.067951" y="163.39531" width="45" height="136" transform="matrix(0.301237 -0.271793 0.240228 0.340819 208.953 331.683)" id="svg_4" stroke="#000000"/>
  </g>
  <g id="svg_8">
   <rect fill="#000000" stroke-width="5" x="-97.373163" y="448.965185" width="45" height="136" transform="matrix(0.301238 0.271793 -0.240227 0.340819 301.619 84.0793)" stroke="#000000" id="svg_9"/>
   <rect fill="#000000" stroke-width="5" x="129.63842" y="259.537203" width="17.33834" height="59.28555" stroke="#000000" id="svg_10"/>
   <rect fill="#000000" stroke-width="5" x="-67.444989" y="-373.08191" width="45" height="136" transform="matrix(0.301237 -0.271793 0.240228 0.340819 208.953 331.683)" stroke="#000000" id="svg_11"/>
  </g>
  <g id="svg_12">
   <rect fill="#000000" stroke-width="5" x="195.489407" y="291.702835" width="45" height="136" transform="matrix(0.301238 0.271793 -0.240227 0.340819 301.619 84.0793)" stroke="#000000" id="svg_13"/>
   <rect fill="#000000" stroke-width="5" x="255.63842" y="285.537203" width="17.33834" height="59.28555" stroke="#000000" id="svg_14"/>
   <rect fill="#000000" stroke-width="5" x="151.043681" y="-122.5569" width="45" height="136" transform="matrix(0.301237 -0.271793 0.240228 0.340819 208.953 331.683)" stroke="#000000" id="svg_15"/>
  </g>
  <text fill="#000000" stroke="#000000" stroke-width="0" x="387" y="206.5" font-size="24" font-family="Sans-serif" text-anchor="middle" xml:space="preserve" id="svg_55">A&#946;</text>
  <ellipse id="svg_3" stroke-opacity="0" fill="#f73636" stroke-width="5" stroke-dasharray="null" stroke-linejoin="null" stroke-linecap="null" cx="386.5" cy="198.726303" rx="56.5" ry="26" stroke="#000000"/>
  <ellipse id="svg_6" stroke-opacity="0" fill="#2e90f2" stroke-width="5" stroke-dasharray="null" stroke-linejoin="null" stroke-linecap="null" cx="264.5" cy="213.726303" rx="56.5" ry="26" stroke="#000000"/>
  <g id="svg_16">
   <rect fill="#000000" stroke-width="5" x="412.413887" y="60.029865" width="45" height="136" transform="matrix(0.301238 0.271793 -0.240227 0.340819 301.619 84.0793)" stroke="#000000" id="svg_17"/>
   <rect fill="#000000" stroke-width="5" x="376.63842" y="265.537203" width="17.33834" height="59.28555" stroke="#000000" id="svg_18"/>
   <rect fill="#000000" stroke-width="5" x="425.179021" y="37.37569" width="45" height="136" transform="matrix(0.301237 -0.271793 0.240228 0.340819 208.953 331.683)" stroke="#000000" id="svg_19"/>
  </g>
  <ellipse id="svg_21" stroke-opacity="0" fill="#579618" stroke-width="5" stroke-dasharray="null" stroke-linejoin="null" stroke-linecap="null" cx="482.5" cy="188.726303" rx="56.5" ry="26" stroke="#000000"/>
  <ellipse id="red" stroke-opacity="0" fill="#f73636" stroke-width="5" stroke-dasharray="null" stroke-linejoin="null" stroke-linecap="null" cx="138.5" cy="189.726303" rx="56.5" ry="26" stroke="#000000"/>
  <path transform="rotate(180 320 338.851)" fill="none" stroke-width="5" d="m34.5,409.725281l571,0a428.25,556.656006 0 0 0 -571,0" id="svg_7" stroke="#000000"/>
  <g id="svg_39">
   <line fill="none" stroke="#f73636" stroke-width="9" stroke-dasharray="null" stroke-linejoin="null" stroke-linecap="null" x1="103.5" y1="84.726303" x2="86.5" y2="103.726303" id="svg_38"/>
   <circle id="svg_22" r="26.400757" cy="66.726303" cx="121.5" stroke-linecap="null" stroke-linejoin="null" stroke-dasharray="null" stroke-width="5" stroke="#f73636" fill="#f73636"/>
  </g>
  <g transform="rotate(135.507 111.5 130.726)" id="svg_30">
   <rect fill="#000000" stroke-width="5" x="-343.816473" y="252.325825" width="45" height="136" transform="matrix(0.301238 0.271793 -0.240227 0.340819 301.619 84.0793)" stroke="#000000" id="svg_31"/>
   <rect fill="#000000" stroke-width="5" x="102.63841" y="125.537213" width="17.33834" height="59.28555" stroke="#000000" id="svg_32"/>
   <rect fill="#000000" stroke-width="5" x="69.423881" y="-657.1036" width="45" height="136" transform="matrix(0.301237 -0.271793 0.240228 0.340819 208.953 331.683)" stroke="#000000" id="svg_33"/>
  </g>
  <g transform="rotate(130.4 279.5 153.726)" id="svg_20">
   <rect fill="#000000" stroke-width="5" x="29.980527" y="21.718365" width="45" height="136" transform="matrix(0.301238 0.271793 -0.240227 0.340819 301.619 84.0793)" stroke="#000000" id="svg_23"/>
   <rect fill="#000000" stroke-width="5" x="270.63841" y="148.537213" width="17.33834" height="59.28555" stroke="#000000" id="svg_24"/>
   <rect fill="#000000" stroke-width="5" x="377.428611" y="-343.99452" width="45" height="136" transform="matrix(0.301237 -0.271793 0.240228 0.340819 208.953 331.683)" stroke="#000000" id="svg_25"/>
  </g>
  <g transform="rotate(-116.87 536.5 120.726)" id="svg_26">
   <rect fill="#000000" stroke-width="5" x="504.278917" y="-453.346025" width="45" height="136" transform="matrix(0.301238 0.271793 -0.240227 0.340819 301.619 84.0793)" stroke="#000000" id="svg_27"/>
   <rect fill="#000000" stroke-width="5" x="527.63841" y="115.537213" width="17.33834" height="59.28555" stroke="#000000" id="svg_28"/>
   <rect fill="#000000" stroke-width="5" x="946.124981" y="12.69828" width="45" height="136" transform="matrix(0.301237 -0.271793 0.240228 0.340819 208.953 331.683)" stroke="#000000" id="svg_29"/>
  </g>
  <g transform="rotate(134.326 383.5 122.726)" id="svg_34">
   <rect fill="#000000" stroke-width="5" x="196.676157" y="-202.173785" width="45" height="136" transform="matrix(0.301238 0.271793 -0.240227 0.340819 301.619 84.0793)" stroke="#000000" id="svg_35"/>
   <rect fill="#000000" stroke-width="5" x="374.63841" y="117.537213" width="17.33834" height="59.28555" stroke="#000000" id="svg_36"/>
   <rect fill="#000000" stroke-width="5" x="632.801021" y="-231.30001" width="45" height="136" transform="matrix(0.301237 -0.271793 0.240228 0.340819 208.953 331.683)" stroke="#000000" id="svg_37"/>
  </g>
  <g id="svg_40">
   <line id="svg_41" fill="none" stroke="#2e90f2" stroke-width="9" stroke-dasharray="null" stroke-linejoin="null" stroke-linecap="null" x1="269.799622" y1="97.426681" x2="252.799622" y2="116.426681"/>
   <circle id="svg_42" stroke-opacity="0" r="26.400757" cy="79.426681" cx="287.799622" stroke-linecap="null" stroke-linejoin="null" stroke-dasharray="null" stroke-width="5" stroke="#000000" fill="#2e90f2"/>
  </g>
  <g id="svg_43">
   <line id="svg_44" fill="none" stroke="#f73636" stroke-width="9" stroke-dasharray="null" stroke-linejoin="null" stroke-linecap="null" x1="376.799622" y1="65.426681" x2="359.799622" y2="84.426681"/>
   <circle id="svg_45" r="26.400757" cy="47.426681" cx="394.799622" stroke-linecap="null" stroke-linejoin="null" stroke-dasharray="null" stroke-width="5" stroke="#f73636" fill="#f73636"/>
  </g>
  <g id="svg_46">
   <line transform="rotate(-67.3801 547.454 89.7573)" id="svg_47" fill="none" stroke="#579618" stroke-width="9" stroke-dasharray="null" stroke-linejoin="null" stroke-linecap="null" x1="555.954048" y1="80.257567" x2="538.954048" y2="99.257567"/>
   <circle transform="rotate(-67.3801 532.262 54.7191)" id="svg_48" stroke-opacity="0" r="26.400757" cy="54.719106" cx="532.261742" stroke-linecap="null" stroke-linejoin="null" stroke-dasharray="null" stroke-width="5" stroke="#000000" fill="#579618"/>
  </g>
  <text fill="#000000" stroke="#000000" stroke-width="0" x="137" y="413" id="svg_54" font-size="24" font-family="Sans-serif" text-anchor="middle" xml:space="preserve">= antibody</text>
  <g id="svg_50">
   <rect fill="#000000" stroke-width="5" x="29.721342" y="865.419822" width="45" height="136" transform="matrix(0.163926 0.138651 -0.130725 0.173863 182.372 213.318)" id="svg_51" stroke="#000000"/>
   <rect fill="#000000" stroke-width="5" x="55.177768" y="392.852865" width="9.435052" height="30.243595" id="svg_52" stroke="#000000"/>
   <rect fill="#000000" stroke-width="5" x="-445.175715" y="-156.502181" width="45" height="136" transform="matrix(0.163925 -0.138651 0.130726 0.173863 131.946 339.629)" id="svg_53" stroke="#000000"/>
  </g>
  <text fill="#000000" stroke="#000000" stroke-width="0" x="262" y="224" font-size="24" font-family="Sans-serif" text-anchor="middle" xml:space="preserve" id="svg_56">tau</text>
  <text fill="#000000" stroke="#000000" stroke-width="0" x="149" y="197" font-size="24" font-family="Sans-serif" text-anchor="middle" xml:space="preserve" id="svg_57">A&#946;</text>
  <text fill="#000000" stroke="#000000" stroke-width="0" x="387" y="209" font-size="24" font-family="Sans-serif" text-anchor="middle" xml:space="preserve" id="svg_58">A&#946;</text>
  <text fill="#000000" stroke="#000000" stroke-width="0" x="481" y="197" font-size="24" font-family="Sans-serif" text-anchor="middle" xml:space="preserve" id="svg_59">P-tau</text>
 </g>
</svg>